#!OML:ASF F:\VICON\USERDATA\INSTALL\rory3\rory3.ASF
:FULLY-SPECIFIED
:DEGREES
555
root 3.26378 29.519 -2.40452 -166.496 -33.0343 174.503
lowerback 11.9313 -3.85497 -3.35304
upperback 2.42652 -5.62299 2.70753
thorax -3.52087 -2.8457 5.53416
lowerneck -18.2333 0.820085 -10.3096
upperneck 38.3706 0.804958 2.71423
head 16.9518 -1.77733 2.9079
rclavicle 9.44227e-014 1.59028e-015
rhumerus -26.0379 6.47419 -81.415
rradius 91.7859
rwrist -11.6899
rhand -40.834 11.9109
rfingers 7.12502
rthumb -13.7717 -17.6133
lclavicle 9.44227e-014 1.59028e-015
lhumerus 14.5649 -13.7082 84.9038
lradius 75.3203
lwrist 21.1529
lhand -12.6128 25.2493
lfingers 7.12502
lthumb 13.4664 54.7939
rfemur -11.3203 -7.26677 22.7279
rtibia 7.17635
rfoot -1.04048 -16.7517
rtoes 16.5356
lfemur -67.7189 17.7347 -30.3747
ltibia 102.289
lfoot -17.6273 -21.1443
ltoes -20.415
556
root 3.27027 29.5227 -2.40639 -166.541 -33.2314 174.642
lowerback 12.0378 -3.90262 -3.17779
upperback 2.41494 -5.66698 2.72483
thorax -3.60164 -2.86651 5.47085
lowerneck -18.3466 0.772639 -10.3156
upperneck 38.4178 0.779387 2.64192
head 17.0111 -1.80122 2.87343
rclavicle 5.52621e-014 -2.38542e-015
rhumerus -26.1559 6.5172 -81.3556
rradius 91.7772
rwrist -11.6879
rhand -40.8896 12.0027
rfingers 7.12502
rthumb -13.8253 -17.5179
lclavicle 5.52621e-014 -2.38542e-015
lhumerus 14.9533 -13.9057 85.0036
lradius 74.8675
lwrist 21.7445
lhand -11.8544 24.936
lfingers 7.12502
lthumb 14.1973 54.4308
rfemur -10.881 -7.33331 22.9069
rtibia 6.20568
rfoot -0.623449 -17.1413
rtoes 16.5636
lfemur -68.4839 17.6799 -30.573
ltibia 102.636
lfoot -17.8949 -21.4861
ltoes -20.0757
557
root 3.27505 29.5287 -2.40876 -166.488 -33.3622 174.67
lowerback 12.1328 -4.03767 -3.1612
upperback 2.36133 -5.84266 2.79529
thorax -3.68407 -2.94995 5.57106
lowerneck -18.365 0.835846 -10.5543
upperneck 38.368 0.986932 2.61872
head 16.9702 -1.75299 2.9426
rclavicle -6.75868e-014 3.02153e-014
rhumerus -26.2149 6.94614 -81.3343
rradius 91.7386
rwrist -11.6335
rhand -41.0062 11.766
rfingers 7.12502
rthumb -13.9376 -17.7469
lclavicle -6.75868e-014 3.02153e-014
lhumerus 15.2241 -13.6963 85.0418
lradius 74.3866
lwrist 22.948
lhand -10.8222 24.4749
lfingers 7.12502
lthumb 15.1918 53.8972
rfemur -10.5654 -7.35812 22.9676
rtibia 5.38055
rfoot -0.291078 -17.5315
rtoes 17.2148
lfemur -69.1909 17.61 -30.9058
ltibia 102.793
lfoot -18.2499 -21.9798
ltoes -20.1307
558
root 3.27892 29.5393 -2.41274 -166.314 -33.3612 174.528
lowerback 12.1304 -3.99793 -3.29446
upperback 2.33278 -5.80461 2.71814
thorax -3.71198 -2.92612 5.56081
lowerneck -18.1951 0.792866 -10.4495
upperneck 38.1694 0.900544 2.58391
head 16.8301 -1.75817 2.88909
rclavicle 6.32135e-014 -2.22639e-014
rhumerus -26.309 6.86053 -81.3493
rradius 91.7127
rwrist -11.5238
rhand -41.1454 11.5536
rfingers 7.12502
rthumb -14.0717 -17.95
lclavicle 6.32135e-014 -2.22639e-014
lhumerus 15.3018 -13.8317 85.1447
lradius 74.2091
lwrist 24.311
lhand -9.8902 24.2339
lfingers 7.12502
lthumb 16.0894 53.586
rfemur -10.3913 -7.2895 22.8494
rtibia 4.80294
rfoot -0.000256397 -17.7571
rtoes 16.6534
lfemur -69.7823 17.5879 -31.4036
ltibia 102.756
lfoot -18.5535 -22.8181
ltoes -20.0797
559
root 3.28312 29.5454 -2.41659 -166.138 -33.3476 174.353
lowerback 12.1403 -4.00402 -3.47687
upperback 2.35009 -5.83779 2.64417
thorax -3.68502 -2.94152 5.58899
lowerneck -18.2527 0.768678 -10.3733
upperneck 38.0432 0.915034 2.49268
head 16.7788 -1.73793 2.83804
rclavicle -1.61016e-014 -1.82882e-014
rhumerus -26.2946 6.91481 -81.3744
rradius 91.7011
rwrist -11.5217
rhand -41.1879 11.5756
rfingers 7.12502
rthumb -14.1127 -17.9252
lclavicle -1.61016e-014 -1.82882e-014
lhumerus 15.1716 -13.6716 85.3157
lradius 74.3681
lwrist 25.3722
lhand -9.22699 24.2283
lfingers 7.12502
lthumb 16.7279 53.5276
rfemur -10.1258 -7.21619 22.7013
rtibia 4.11984
rfoot 0.205751 -17.9919
rtoes 16.3936
lfemur -70.3123 17.532 -31.9253
ltibia 102.615
lfoot -18.9028 -23.5693
ltoes -20.0818
560
root 3.28796 29.5483 -2.41748 -166.125 -33.4692 174.25
lowerback 12.3489 -3.95967 -3.50186
upperback 2.40139 -5.79526 2.48784
thorax -3.76472 -2.91887 5.45002
lowerneck -18.2577 0.699955 -10.0975
upperneck 37.9382 0.749498 2.46727
head 16.7398 -1.75251 2.7488
rclavicle -4.4329e-014 1.74931e-014
rhumerus -26.3955 6.67116 -81.4481
rradius 91.7774
rwrist -11.5418
rhand -41.2372 11.6167
rfingers 7.12502
rthumb -14.1602 -17.8808
lclavicle -4.4329e-014 1.74931e-014
lhumerus 15.0141 -13.729 85.4886
lradius 74.6412
lwrist 26.1208
lhand -8.72832 24.1813
lfingers 7.12502
lthumb 17.2079 53.4394
rfemur -9.68175 -7.2683 22.6173
rtibia 3.36587
rfoot 0.362232 -18.2441
rtoes 16.9839
lfemur -70.6573 17.3216 -32.3008
ltibia 102.36
lfoot -19.418 -23.9962
ltoes -21.0007
561
root 3.29187 29.5504 -2.42031 -166.244 -33.6135 174.31
lowerback 12.5872 -4.05075 -3.48789
upperback 2.4602 -5.92709 2.52688
thorax -3.81544 -2.98723 5.52078
lowerneck -18.3111 0.726336 -10.3407
upperneck 37.8145 0.856028 2.63732
head 16.6746 -1.70497 2.88806
rclavicle 1.30602e-013 -5.00937e-014
rhumerus -26.3331 7.04369 -81.4109
rradius 91.7732
rwrist -11.6208
rhand -41.3144 11.8123
rfingers 7.12502
rthumb -14.2346 -17.6799
lclavicle 1.30602e-013 -5.00937e-014
lhumerus 14.7321 -13.2282 85.7746
lradius 75.0734
lwrist 26.1538
lhand -8.80974 24.7275
lfingers 7.12502
lthumb 17.1296 53.9924
rfemur -9.24258 -7.3063 22.6933
rtibia 2.75286
rfoot 0.437643 -18.4728
rtoes 17.4198
lfemur -70.9556 17.1206 -32.4874
ltibia 102.034
lfoot -19.4654 -24.5367
ltoes -21.3387
562
root 3.29459 29.55 -2.4256 -166.265 -33.7687 174.363
lowerback 12.6767 -4.0947 -3.41336
upperback 2.49527 -5.98143 2.52078
thorax -3.82957 -3.01645 5.48684
lowerneck -18.3964 0.683902 -10.4705
upperneck 37.792 0.806135 2.79409
head 16.6857 -1.71546 2.9738
rclavicle -6.95746e-014 1.43125e-014
rhumerus -26.356 7.19875 -81.3802
rradius 91.7678
rwrist -11.5939
rhand -41.3805 11.8836
rfingers 7.12502
rthumb -14.2983 -17.6041
lclavicle -6.95746e-014 1.43125e-014
lhumerus 14.3263 -13.1251 86.04
lradius 75.869
lwrist 25.2784
lhand -9.87055 25.8705
lfingers 7.12502
lthumb 16.1083 55.2211
rfemur -8.87894 -7.3511 22.7836
rtibia 2.06905
rfoot 0.612622 -18.702
rtoes 17.7934
lfemur -71.3069 16.8916 -32.7206
ltibia 101.608
lfoot -18.9418 -25.1732
ltoes -20.4344
563
root 3.29745 29.5527 -2.42904 -166.174 -33.939 174.272
lowerback 12.7956 -4.13259 -3.40667
upperback 2.50974 -6.03714 2.4444
thorax -3.88222 -3.04252 5.42132
lowerneck -18.548 0.629741 -10.4926
upperneck 37.7952 0.733902 2.89135
head 16.7307 -1.72821 3.01138
rclavicle -2.5842e-015 -7.95139e-016
rhumerus -26.3956 7.26866 -81.4083
rradius 91.7803
rwrist -11.6619
rhand -41.5445 11.7321
rfingers 7.12502
rthumb -14.4563 -17.7444
lclavicle -2.5842e-015 -7.95139e-016
lhumerus 13.8661 -13.1455 86.2765
lradius 76.8179
lwrist 24.3597
lhand -11.2682 26.3154
lfingers 7.12502
lthumb 14.7621 55.7697
rfemur -8.50564 -7.44084 22.7491
rtibia 1.26416
rfoot 0.842152 -18.9982
rtoes 18.0463
lfemur -71.5834 16.5758 -33.0848
ltibia 101.059
lfoot -18.6868 -25.6684
ltoes -19.93
564
root 3.29812 29.5581 -2.43194 -166.114 -34.0169 174.167
lowerback 12.978 -4.15324 -3.45474
upperback 2.53107 -6.08056 2.3718
thorax -3.95771 -3.06198 5.39479
lowerneck -18.4897 0.584436 -10.4256
upperneck 37.5426 0.722995 2.78896
head 16.5874 -1.71071 2.94933
rclavicle 4.8901e-014 -2.78299e-015
rhumerus -26.4129 7.4642 -81.384
rradius 91.7711
rwrist -11.6076
rhand -41.7687 11.5783
rfingers 7.12502
rthumb -14.6723 -17.8825
lclavicle 4.8901e-014 -2.78299e-015
lhumerus 13.4712 -13.1534 86.4106
lradius 77.6107
lwrist 23.6456
lhand -12.3383 26.2092
lfingers 7.12502
lthumb 13.731 55.7361
rfemur -8.74311 -7.45021 22.6467
rtibia 1.7743
rfoot 0.462926 -18.9609
rtoes 18.3561
lfemur -71.7481 16.3487 -33.4807
ltibia 100.405
lfoot -18.8439 -25.7784
ltoes -20.0214
